<?xml version="1.0" encoding="UTF-8" standalone="no"?>
<!-- Created with Inkscape (http://www.inkscape.org/) -->

<svg
   xmlns:dc="http://purl.org/dc/elements/1.1/"
   xmlns:cc="http://creativecommons.org/ns#"
   xmlns:rdf="http://www.w3.org/1999/02/22-rdf-syntax-ns#"
   xmlns:svg="http://www.w3.org/2000/svg"
   xmlns="http://www.w3.org/2000/svg"
   xmlns:sodipodi="http://sodipodi.sourceforge.net/DTD/sodipodi-0.dtd"
   xmlns:inkscape="http://www.inkscape.org/namespaces/inkscape"
   width="600"
   height="400"
   viewBox="0 0 158.75 105.83334"
   version="1.1"
   id="svg4695"
   inkscape:version="0.92.4 (fd57863, 2020-04-02)"
   sodipodi:docname="biotite2pymol_logo.svg"
   inkscape:export-filename="/home/kunzmann/Documents/coding/biotite2pymol/doc/static/assets/biotite2pymol_logo.png"
   inkscape:export-xdpi="96"
   inkscape:export-ydpi="96">
  <defs
     id="defs4689" />
  <sodipodi:namedview
     id="base"
     pagecolor="#ffffff"
     bordercolor="#666666"
     borderopacity="1.0"
     inkscape:pageopacity="0.0"
     inkscape:pageshadow="2"
     inkscape:zoom="1.4142136"
     inkscape:cx="235.19501"
     inkscape:cy="167.43632"
     inkscape:document-units="px"
     inkscape:current-layer="layer1"
     showgrid="false"
     units="px"
     inkscape:window-width="1853"
     inkscape:window-height="1025"
     inkscape:window-x="67"
     inkscape:window-y="27"
     inkscape:window-maximized="1"
     showguides="true"
     inkscape:guide-bbox="true" />
  <metadata
     id="metadata4692">
    <rdf:RDF>
      <cc:Work
         rdf:about="">
        <dc:format>image/svg+xml</dc:format>
        <dc:type
           rdf:resource="http://purl.org/dc/dcmitype/StillImage" />
        <dc:title></dc:title>
      </cc:Work>
    </rdf:RDF>
  </metadata>
  <g
     inkscape:label="Layer 1"
     inkscape:groupmode="layer"
     id="layer1"
     transform="translate(0,-191.16665)">
    <g
       transform="matrix(12.505549,0,0,12.505549,-196.30715,-3521.5572)"
       id="g859">
      <path
         inkscape:connector-curvature="0"
         style="fill:#b45c00;fill-opacity:1;stroke:none;stroke-width:0.01842965;stroke-miterlimit:4;stroke-dasharray:none;stroke-dashoffset:0;stroke-opacity:1"
         d="m 18.16017,299.70575 -1.224042,-0.70463 v 1.4135 z"
         id="path839" />
      <path
         id="path841"
         d="m 16.936128,300.41462 0.0018,-1.41238 -1.225934,0.70563 z"
         style="fill:#dc7000;fill-opacity:1;stroke:none;stroke-width:0.01842965;stroke-miterlimit:4;stroke-dasharray:none;stroke-dashoffset:0;stroke-opacity:1"
         inkscape:connector-curvature="0" />
      <path
         id="path843"
         d="m 18.154668,302.52726 -1.224042,-0.70463 v 1.4135 z"
         style="fill:#b45c00;fill-opacity:1;stroke:none;stroke-width:0.01842965;stroke-miterlimit:4;stroke-dasharray:none;stroke-dashoffset:0;stroke-opacity:1"
         inkscape:connector-curvature="0" />
      <path
         inkscape:connector-curvature="0"
         style="fill:#dc7000;fill-opacity:1;stroke:none;stroke-width:0.01842965;stroke-miterlimit:4;stroke-dasharray:none;stroke-dashoffset:0;stroke-opacity:1"
         d="m 16.930626,303.23613 0.0018,-1.41238 -1.225934,0.70563 z"
         id="path845" />
      <path
         style="fill:#ffb569;fill-opacity:1;stroke:none;stroke-width:0;stroke-linecap:butt;stroke-linejoin:miter;stroke-miterlimit:4;stroke-dasharray:none;stroke-opacity:1"
         d="m 15.711994,299.70787 0.0035,-1.41138 0.612068,-0.35338 1.225859,0.70776 z"
         id="path847"
         inkscape:connector-curvature="0" />
      <path
         inkscape:connector-curvature="0"
         id="path849"
         d="m 18.169059,296.88611 -0.0035,1.41138 -0.612068,0.35338 -1.225859,-0.70776 z"
         style="fill:#ff982d;fill-opacity:1;stroke:none;stroke-width:0;stroke-linecap:butt;stroke-linejoin:miter;stroke-miterlimit:4;stroke-dasharray:none;stroke-opacity:1" />
      <path
         inkscape:connector-curvature="0"
         id="path851"
         d="m 15.706492,302.52938 0.0035,-1.41138 0.612068,-0.35338 1.225859,0.70776 z"
         style="fill:#ffb569;fill-opacity:1;stroke:none;stroke-width:0;stroke-linecap:butt;stroke-linejoin:miter;stroke-miterlimit:4;stroke-dasharray:none;stroke-opacity:1" />
      <path
         style="fill:#ff982d;fill-opacity:1;stroke:none;stroke-width:0;stroke-linecap:butt;stroke-linejoin:miter;stroke-miterlimit:4;stroke-dasharray:none;stroke-opacity:1"
         d="m 18.163557,299.70762 -0.0035,1.41138 -0.612068,0.35338 -1.225859,-0.70776 z"
         id="path853"
         inkscape:connector-curvature="0" />
      <path
         inkscape:connector-curvature="0"
         id="path855"
         d="m 15.697603,305.34902 0.0035,-1.41138 0.612068,-0.35338 1.225859,0.70776 z"
         style="fill:#ffb569;fill-opacity:1;stroke:none;stroke-width:0;stroke-linecap:butt;stroke-linejoin:miter;stroke-miterlimit:4;stroke-dasharray:none;stroke-opacity:1" />
      <path
         style="fill:#ff982d;fill-opacity:1;stroke:none;stroke-width:0;stroke-linecap:butt;stroke-linejoin:miter;stroke-miterlimit:4;stroke-dasharray:none;stroke-opacity:1"
         d="m 18.154668,302.52726 -0.0035,1.41138 -0.612068,0.35338 -1.225859,-0.70776 z"
         id="path857"
         inkscape:connector-curvature="0" />
    </g>
    <g
       aria-label="biotite"
       style="font-style:normal;font-variant:normal;font-weight:normal;font-stretch:normal;font-size:49.38888931px;line-height:1.25;font-family:Iceland;-inkscape-font-specification:'Iceland, Normal';font-variant-ligatures:normal;font-variant-caps:normal;font-variant-numeric:normal;font-feature-settings:normal;text-align:start;letter-spacing:0px;word-spacing:0px;writing-mode:lr-tb;text-anchor:start;fill:#dc7000;fill-opacity:1;stroke:none;stroke-width:0.67589271"
       id="text863">
      <path
         d="m 50.747366,239.10628 q 0,1.43228 -1.037167,2.46945 -0.987778,0.98778 -2.420056,0.98778 H 36.918477 v -2.91395 l -3.457223,3.40784 v -25.68223 l 3.457223,-3.45722 v 13.82889 l 2.469444,-2.46944 h 7.902222 q 1.432278,0 2.420056,1.03716 1.037167,0.98778 1.037167,2.42006 z m -3.457223,0.49389 V 228.24073 H 36.918477 v 11.35944 z"
         style="font-style:normal;font-variant:normal;font-weight:normal;font-stretch:normal;font-size:49.38888931px;font-family:Iceland;-inkscape-font-specification:'Iceland, Normal';font-variant-ligatures:normal;font-variant-caps:normal;font-variant-numeric:normal;font-feature-settings:normal;text-align:start;writing-mode:lr-tb;text-anchor:start;fill:#dc7000;fill-opacity:1;stroke-width:0.67589271"
         id="path912"
         inkscape:connector-curvature="0" />
      <path
         d="M 61.119032,222.31406 H 57.66181 v -3.95111 h 3.457222 z m 0,20.24945 H 57.66181 v -14.81667 l 3.457222,-3.45722 z"
         style="font-style:normal;font-variant:normal;font-weight:normal;font-stretch:normal;font-size:49.38888931px;font-family:Iceland;-inkscape-font-specification:'Iceland, Normal';font-variant-ligatures:normal;font-variant-caps:normal;font-variant-numeric:normal;font-feature-settings:normal;text-align:start;writing-mode:lr-tb;text-anchor:start;fill:#dc7000;fill-opacity:1;stroke-width:0.67589271"
         id="path914"
         inkscape:connector-curvature="0" />
      <path
         d="m 85.365888,239.10628 q 0,1.43228 -1.037166,2.46945 -0.987778,0.98778 -2.420056,0.98778 H 71.536999 q -1.432278,0 -2.469444,-0.98778 -0.987778,-1.03717 -0.987778,-2.46945 v -10.37166 q 0,-1.43228 0.987778,-2.42006 1.037166,-1.03716 2.469444,-1.03716 h 10.371667 q 1.432278,0 2.420056,1.03716 1.037166,0.98778 1.037166,2.42006 z m -3.457222,0.49389 V 228.24073 H 71.536999 v 11.35944 z"
         style="font-style:normal;font-variant:normal;font-weight:normal;font-stretch:normal;font-size:49.38888931px;font-family:Iceland;-inkscape-font-specification:'Iceland, Normal';font-variant-ligatures:normal;font-variant-caps:normal;font-variant-numeric:normal;font-feature-settings:normal;text-align:start;writing-mode:lr-tb;text-anchor:start;fill:#dc7000;fill-opacity:1;stroke-width:0.67589271"
         id="path916"
         inkscape:connector-curvature="0" />
      <path
         d="m 103.65136,242.56351 h -6.914448 q -1.432277,0 -2.469444,-0.98778 -0.987778,-1.03717 -0.987778,-2.46945 v -10.86555 h -4.938889 l 2.963334,-2.96333 h 1.975555 v -3.45723 l 3.457222,-3.45722 v 6.91445 h 6.914448 v 2.96333 h -6.914448 v 11.35944 h 6.914448 z"
         style="font-style:normal;font-variant:normal;font-weight:normal;font-stretch:normal;font-size:49.38888931px;font-family:Iceland;-inkscape-font-specification:'Iceland, Normal';font-variant-ligatures:normal;font-variant-caps:normal;font-variant-numeric:normal;font-feature-settings:normal;text-align:start;writing-mode:lr-tb;text-anchor:start;fill:#dc7000;fill-opacity:1;stroke-width:0.67589271"
         id="path918"
         inkscape:connector-curvature="0" />
      <path
         d="m 112.05133,222.31406 h -3.45722 v -3.95111 h 3.45722 z m 0,20.24945 h -3.45722 v -14.81667 l 3.45722,-3.45722 z"
         style="font-style:normal;font-variant:normal;font-weight:normal;font-stretch:normal;font-size:49.38888931px;font-family:Iceland;-inkscape-font-specification:'Iceland, Normal';font-variant-ligatures:normal;font-variant-caps:normal;font-variant-numeric:normal;font-feature-settings:normal;text-align:start;writing-mode:lr-tb;text-anchor:start;fill:#dc7000;fill-opacity:1;stroke-width:0.67589271"
         id="path920"
         inkscape:connector-curvature="0" />
      <path
         d="m 130.37152,242.56351 h -6.91445 q -1.43227,0 -2.46944,-0.98778 -0.98778,-1.03717 -0.98778,-2.46945 v -10.86555 h -4.93889 l 2.96334,-2.96333 h 1.97555 v -3.45723 l 3.45722,-3.45722 v 6.91445 h 6.91445 v 2.96333 h -6.91445 v 11.35944 h 6.91445 z"
         style="font-style:normal;font-variant:normal;font-weight:normal;font-stretch:normal;font-size:49.38888931px;font-family:Iceland;-inkscape-font-specification:'Iceland, Normal';font-variant-ligatures:normal;font-variant-caps:normal;font-variant-numeric:normal;font-feature-settings:normal;text-align:start;writing-mode:lr-tb;text-anchor:start;fill:#dc7000;fill-opacity:1;stroke-width:0.67589271"
         id="path922"
         inkscape:connector-curvature="0" />
      <path
         d="m 152.60038,242.56351 h -13.82889 q -1.43228,0 -2.46945,-0.98778 -0.98777,-1.03717 -0.98777,-2.46945 v -10.37166 q 0,-1.43228 0.98777,-2.42006 1.03717,-1.03716 2.46945,-1.03716 h 10.37167 q 1.43227,0 2.42005,1.03716 1.03717,0.98778 1.03717,2.42006 v 3.45722 l -3.45722,3.45722 h -9.87778 l 2.96333,-2.96333 h 6.91445 v -4.445 h -10.37167 v 11.35944 h 13.82889 z"
         style="font-style:normal;font-variant:normal;font-weight:normal;font-stretch:normal;font-size:49.38888931px;font-family:Iceland;-inkscape-font-specification:'Iceland, Normal';font-variant-ligatures:normal;font-variant-caps:normal;font-variant-numeric:normal;font-feature-settings:normal;text-align:start;writing-mode:lr-tb;text-anchor:start;fill:#dc7000;fill-opacity:1;stroke-width:0.67589271"
         id="path924"
         inkscape:connector-curvature="0" />
    </g>
    <g
       aria-label="pymol"
       style="font-style:normal;font-variant:normal;font-weight:normal;font-stretch:normal;font-size:49.38888931px;line-height:1.25;font-family:Iceland;-inkscape-font-specification:'Iceland, Normal';font-variant-ligatures:normal;font-variant-caps:normal;font-variant-numeric:normal;font-feature-settings:normal;text-align:start;letter-spacing:0px;word-spacing:0px;writing-mode:lr-tb;text-anchor:start;fill:#ffb569;fill-opacity:1;stroke:none;stroke-width:0.26458332"
       id="text910"
       transform="translate(0.00730815,0.24853366)">
      <path
         d="m 63.170515,258.64025 q 0,1.43228 -1.037167,2.46945 -0.987778,0.98777 -2.420055,0.98777 H 49.341626 v 10.37167 h -3.457223 v -27.65778 h 3.457223 v 2.46945 l 2.469444,-2.46945 h 7.902223 q 1.432277,0 2.420055,1.03717 1.037167,0.98778 1.037167,2.42005 z m -3.457222,0.49389 V 247.7747 H 49.341626 v 13.82888 l 2.469444,-2.46944 z"
         style="font-style:normal;font-variant:normal;font-weight:normal;font-stretch:normal;font-size:49.38888931px;font-family:Iceland;-inkscape-font-specification:'Iceland, Normal';font-variant-ligatures:normal;font-variant-caps:normal;font-variant-numeric:normal;font-feature-settings:normal;text-align:start;writing-mode:lr-tb;text-anchor:start;fill:#ffb569;fill-opacity:1;stroke-width:0.26458332"
         id="path927"
         inkscape:connector-curvature="0" />
      <path
         d="m 87.382646,269.01192 q 0,1.43228 -1.037166,2.42005 -0.987778,1.03717 -2.420056,1.03717 H 69.602646 l 2.963333,-2.96333 h 11.359445 v -9.87778 l -2.469444,2.46944 h -7.902223 q -1.432278,0 -2.469444,-0.98777 -0.987778,-1.03717 -0.987778,-2.46945 v -13.82889 h 3.457222 v 14.32278 h 10.371667 v -14.32278 h 3.457222 z"
         style="font-style:normal;font-variant:normal;font-weight:normal;font-stretch:normal;font-size:49.38888931px;font-family:Iceland;-inkscape-font-specification:'Iceland, Normal';font-variant-ligatures:normal;font-variant-caps:normal;font-variant-numeric:normal;font-feature-settings:normal;text-align:start;writing-mode:lr-tb;text-anchor:start;fill:#ffb569;fill-opacity:1;stroke-width:0.26458332"
         id="path929"
         inkscape:connector-curvature="0" />
      <path
         d="m 123.64104,262.09747 h -3.45723 V 247.7747 h -9.38389 v 14.32277 H 107.3427 V 247.7747 h -9.383887 v 14.32277 h -3.457222 v -17.28611 h 3.457222 v 2.46945 l 2.469447,-2.46945 h 6.91444 q 3.01272,0 3.40784,2.51884 l 2.51883,-2.51884 h 6.91444 q 1.43228,0 2.42006,1.03717 1.03717,0.98778 1.03717,2.42005 z"
         style="font-style:normal;font-variant:normal;font-weight:normal;font-stretch:normal;font-size:49.38888931px;font-family:Iceland;-inkscape-font-specification:'Iceland, Normal';font-variant-ligatures:normal;font-variant-caps:normal;font-variant-numeric:normal;font-feature-settings:normal;text-align:start;writing-mode:lr-tb;text-anchor:start;fill:#ffb569;fill-opacity:1;stroke-width:0.26458332"
         id="path931"
         inkscape:connector-curvature="0" />
      <path
         d="m 147.86474,258.64025 q 0,1.43228 -1.03716,2.46945 -0.98778,0.98777 -2.42006,0.98777 h -10.37167 q -1.43227,0 -2.46944,-0.98777 -0.98778,-1.03717 -0.98778,-2.46945 v -10.37167 q 0,-1.43227 0.98778,-2.42005 1.03717,-1.03717 2.46944,-1.03717 h 10.37167 q 1.43228,0 2.42006,1.03717 1.03716,0.98778 1.03716,2.42005 z m -3.45722,0.49389 V 247.7747 h -10.37167 v 11.35944 z"
         style="font-style:normal;font-variant:normal;font-weight:normal;font-stretch:normal;font-size:49.38888931px;font-family:Iceland;-inkscape-font-specification:'Iceland, Normal';font-variant-ligatures:normal;font-variant-caps:normal;font-variant-numeric:normal;font-feature-settings:normal;text-align:start;writing-mode:lr-tb;text-anchor:start;fill:#ffb569;fill-opacity:1;stroke-width:0.26458332"
         id="path933"
         inkscape:connector-curvature="0" />
      <path
         d="m 158.74187,262.09747 h -3.45722 v -25.18833 l 3.45722,-3.45722 z"
         style="font-style:normal;font-variant:normal;font-weight:normal;font-stretch:normal;font-size:49.38888931px;font-family:Iceland;-inkscape-font-specification:'Iceland, Normal';font-variant-ligatures:normal;font-variant-caps:normal;font-variant-numeric:normal;font-feature-settings:normal;text-align:start;writing-mode:lr-tb;text-anchor:start;fill:#ffb569;fill-opacity:1;stroke-width:0.26458332"
         id="path935"
         inkscape:connector-curvature="0" />
    </g>
  </g>
</svg>
